#!OML:ASF F:\VICON\USERDATA\INSTALL\rory3\rory3.ASF
:FULLY-SPECIFIED
:DEGREES
36
root 1.0855745790459659 18.131510678160932 8.269451047278892 -3.689930420040313 -0.507292923506147 0.9689892338587902
lfemur -3.099466485816981 -2.3323037500035912 -25.686409307714367
ltibia 21.36946788700088
lfoot -13.94421311113215 3.6643193141164287
ltoes -4.064897046217544
rfemur -20.867834915227938 1.2971866511503989 22.21555719486022
rtibia 77.52101407543677
rfoot 0.46431005444268525 -7.321412827630333
rtoes 12.072322341595104
lowerback 11.973112371073718 0.1635631479853935 -1.0764112828203123
upperback 0.1531653119839157 0.33133155751336735 0.785631200127469
thorax -6.413968882979339 0.23447514579006687 1.7293889476103326
lowerneck -16.374506251025842 -3.696143279324975 -2.2955839812034617
upperneck 21.2312696208112 -5.194440209146895 2.2127561239755673
head 9.514347021914665 -2.3108299439247415 0.47029600344841344
lclavicle 2.9911140331464116e-16 5.531456152480308e-17
lhumerus -31.81893222301499 4.001594352553775 80.36476169280384
lradius 21.792526867588624
lwrist 6.859609970096633
lhand -28.333723540794743 22.16672034084897
lfingers 7.125020000000001
lthumb -1.6003724165337456 52.261195496197715
rclavicle 2.9911140321315465e-16 5.531456145254253e-17
rhumerus -27.14147352309829 -21.921847888405487 -77.70899378195466
rradius 31.60751237426827
rwrist 3.148341214927462
rhand -17.891465858549942 22.828183617215217
rfingers 7.125020000000001
rthumb 8.449198617213659 -6.936424138016535
37
root 1.0726068410457112 18.06753165298577 9.186948406319484 -3.5007624630102834 0.1042419255482182 1.1654925981635484
lfemur -0.9544576653197518 -2.757423007491939 -26.18396037635395
ltibia 21.19588118856126
lfoot -16.06701380692068 3.884074241412251
ltoes -2.041897406046183
rfemur -23.788694075931115 1.4094607794416727 22.002158412542375
rtibia 74.98888481834172
rfoot -2.6976502357011247 -8.033559944736265
rtoes 9.843064785096654
lowerback 11.908640362690111 -0.28006515974951895 -1.5635935804212011
upperback 0.19899659410589743 -0.26204941983151797 0.9214790818778128
thorax -6.364848415380012 -0.04006974162541502 2.2834390253979313
lowerneck -16.498587913974514 -3.6759204441410165 -2.4237621762372648
upperneck 21.130311518540164 -5.0974188627448065 2.2588070809262004
head 9.482760864876056 -2.270697686732848 0.4932681753629057
lclavicle 2.9911140332291336e-16 5.5314561531672213e-17
lhumerus -29.766432272861778 2.400256514652927 80.75415580455163
lradius 22.44280925627398
lwrist 7.597977034728665
lhand -28.08870029916003 23.948816699094895
lfingers 7.125020000000001
lthumb -1.7127482846366746 53.23962972193044
rclavicle 2.99111403214655e-16 5.531456145447941e-17
rhumerus -28.369128813462613 -21.416006905927386 -77.23002238995994
rradius 32.62098757117931
rwrist 1.9473873382398696
rhand -18.074043818837236 23.055539711535197
rfingers 7.125020000000001
rthumb 8.350522180966573 -6.53640374578275
38
root 1.051916586587627 17.990626417053736 9.688992148297192 -3.1530988464881524 0.5585229434070563 0.7561595032361366
lfemur 0.5737311018589581 -3.0834048631980213 -26.066349042862253
ltibia 21.791018863888368
lfoot -17.671860746169937 3.6452318621733193
ltoes 0.3453600654916631
rfemur -25.565801849237562 2.258601477187762 21.980819252664244
rtibia 69.11292066740015
rfoot -5.302789366481594 -8.512995547833809
rtoes 7.064314795751506
lowerback 11.802176785692023 -0.5784335888684192 -1.4506637182335462
upperback 0.148282202687496 -0.6629387719436155 1.1682522096753873
thorax -6.360380569429128 -0.23234936006690374 2.5449402196764477
lowerneck -16.687570020048906 -3.6864153068101446 -2.5654593621541784
upperneck 21.051752103930472 -5.0734029291949785 2.32958344382805
head 9.502566384692956 -2.249844353019971 0.5095362932630303
lclavicle 2.9911140332989995e-16 5.531456153706621e-17
lhumerus -27.879296023810973 0.46427828850937525 81.24749296598397
lradius 23.221656213177013
lwrist 8.018750884828961
lhand -28.76933076451019 22.183568233281704
lfingers 7.125020000000001
lthumb -2.209954542612025 51.84762961799125
rclavicle 2.9911140321399153e-16 5.5314561454388866e-17
rhumerus -29.62940854986515 -20.077667124499413 -77.00057053563673
rradius 33.87604755561951
rwrist 0.825850429502549
rhand -18.203276638913934 22.939202635437237
rfingers 7.125020000000001
rthumb 8.234221424225316 -6.60427795566393
39
root 1.0239511581924505 17.948211189850927 10.901562138527954 -2.794309259304391 1.139311120986671 0.988174641900812
lfemur 2.778279253376019 -3.1805689238295662 -26.3687780953059
ltibia 21.000761095351272
lfoot -18.218190259325013 3.2610128250934105
ltoes 1.5437453610650422
rfemur -26.17625167979118 3.150753477761216 21.324384416666955
rtibia 59.828624027023494
rfoot -6.748389895257581 -9.050733854511188
rtoes 3.9116464178748833
lowerback 11.464085441010011 -0.8555730004238942 -2.27184256312537
upperback 0.15415177300806465 -1.1493424447068166 1.301191923552579
thorax -6.274807687364047 -0.45129683932785836 3.1367790117345313
lowerneck -16.852564458625753 -3.6591065197557398 -2.6555253112805115
upperneck 20.908255146584725 -5.012022528624885 2.427678057801391
head 9.476688040882122 -2.2115298901285443 0.5538086787882915
lclavicle 2.991114033410866e-16 5.531456154537556e-17
lhumerus -26.10944516710912 -1.1419318115209163 81.33525765151268
lradius 24.478537319141935
lwrist 8.815381995023182
lhand -28.919926964391713 21.897573512135896
lfingers 7.125020000000001
lthumb -2.462390222918689 51.375819284620256
rclavicle 2.991114032040627e-16 5.53145614472907e-17
rhumerus -30.341677808030237 -19.02086906516258 -76.92095588420885
rradius 34.71730078544907
rwrist 0.16426248981697267
rhand -18.19991552766422 23.095937326963124
rfingers 7.125020000000001
rthumb 8.2410091979979 -6.455991510869423
